PathFileType	4	(X/Y/Z)	Patient4_TMGait_0pt4_02_left_39.trc.trc
DataRate	CameraRate	NumFrames	NumMarkers	Units	OrigDataRate	OrigDataStartFrame	OrigNumFrames
78.651685393258	78.651685393258	6	33	mm	78.651685393258	106	       141
Frame#	Time	Sacral			L.Shoulder			Chest			R.Shoulder			Neck			R.ASIS			L.ASIS			R.Thigh.Superior			R.Thigh.Lateral			R.Thigh.Inferior			R.Patella			L.Thigh.Superior			L.Thigh.Lateral			L.Thigh.Inferior			L.Patella			L.Shank.Superior			L.Shank.Lateral			L.Shank.Inferior			R.Shank.Superior			R.Shank.Lateral			R.Shank.Inferior			R.Heel			R.Midfoot.Superior			R.Midfoot.Lateral			R.Toe			L.Heel			L.Midfoot.Lateral			L.Midfoot.Superior			L.Toe			L.Elbow			L.Wrist			R.Elbow			R.Wrist			
		X1	Y1	Z1	X2	Y2	Z2	X3	Y3	Z3	X4	Y4	Z4	X5	Y5	Z5	X6	Y6	Z6	X7	Y7	Z7	X8	Y8	Z8	X9	Y9	Z9	X10	Y10	Z10	X11	Y11	Z11	X12	Y12	Z12	X13	Y13	Z13	X14	Y14	Z14	X15	Y15	Z15	X16	Y16	Z16	X17	Y17	Z17	X18	Y18	Z18	X19	Y19	Z19	X20	Y20	Z20	X21	Y21	Z21	X22	Y22	Z22	X23	Y23	Z23	X24	Y24	Z24	X25	Y25	Z25	X26	Y26	Z26	X27	Y27	Z27	X28	Y28	Z28	X29	Y29	Z29	X30	Y30	Z30	X31	Y31	Z31	X32	Y32	Z32	X33	Y33	Z33	

106	53.455000000000	822.363469380035	1002.638780369107	557.227562254231	978.927194770921	1430.594184323054	356.436155036248	1099.260381154202	1365.700501860554	506.717742768163	1036.054076970756	1440.851951473507	688.194941632932	978.857228305148	1495.337379707241	513.451611708246	1059.828006417649	943.228909829010	654.983342485821	1023.263782817542	966.262789696898	381.923528954157	1092.436124775839	740.190448069809	622.562646227266	1011.320421702534	632.236044317805	688.249978143087	1082.715764518803	579.032337922015	605.236510604791	1079.598418678602	490.838190527108	611.656175261863	1110.161077041570	784.656898686123	401.220029664408	1063.448205045886	659.743632013256	318.536705409105	1170.214618028648	600.188193459604	373.632788387030	1194.060825123677	526.136459292032	363.150291409078	1159.186342751117	452.306319139211	349.413912181568	1057.837399980004	348.686944978627	296.695443919360	1117.768867678856	226.730127989844	339.892584997307	1049.215550013113	401.331739778471	618.384744480281	975.227686592025	299.464710530954	679.732417369983	1011.329326682739	203.873302925291	615.052288854846	872.648165553266	42.675943965129	585.604040838977	1042.786732036080	96.729022074327	621.390325329206	955.590849631998	36.576535996716	661.169114994254	1163.586230681211	45.679053962567	650.303568992058	993.993082952800	69.423234836969	375.385401242731	1060.333938381309	66.990493260549	289.333788505629	1147.504973736837	126.394730443573	309.805566247192	1268.971993570507	74.117571460405	267.298425779913	925.018522406542	1081.516246371975	240.921343787806	1064.158356422802	858.217982376976	217.652125087290	1092.089677953928	1101.660164205410	820.057250740899	1319.435887342031	1000.167406015252	754.379560654410	
107	53.467714285714	821.810312521929	1003.312290768312	558.334204684115	977.962296117486	1430.982633296606	356.992756062977	1099.288643560307	1365.605284635437	506.255848928620	1037.644877418058	1440.798325929282	688.273701511012	979.185881975098	1495.499373429145	514.106772432717	1059.629778135555	943.012626842872	654.320834752493	1021.429891083540	966.518824257385	381.464671145993	1090.232233800233	739.588570177901	621.689865638482	1008.726953459138	632.188228443904	688.065619838203	1079.011399088652	578.472615248701	604.606005568482	1075.240774461181	490.507066597424	611.176023002534	1107.006703580258	784.119365112744	401.075869295661	1060.871630077721	660.150427487943	317.233166506967	1166.336119703559	599.854211301392	374.193592833435	1191.334240478513	528.003937761638	363.206923463854	1160.005648328502	454.551076595338	348.830381585559	1065.394267744730	345.524700900479	294.443801530536	1131.766594728046	226.708811961596	338.143788953177	1044.758266719860	401.107101873906	618.083231541397	970.729063883555	299.394178917535	679.620855009445	1006.475903572468	203.732326983261	614.884825035968	867.528417575047	42.649469353045	585.658804123975	1037.651559811671	96.690354837367	621.354693427795	950.465542051764	36.578891485038	661.180942119794	1158.452450040747	45.618009579479	650.293157564474	1016.670567827943	62.496954646378	372.088033754678	1084.370948128945	63.333524779355	286.963676464654	1168.057592712246	127.442653190154	308.227821948330	1292.833810075130	81.514105615027	267.634436187653	922.041586235198	1082.276039683840	241.327505748555	1055.340920483141	855.699126852698	215.696683992091	1099.184428266469	1102.808321619276	819.247493361037	1330.243037117515	1016.020525771473	747.963621671266	
108	53.480428571429	821.262731795790	1003.951527210080	559.183514007540	977.105069919001	1431.365298011512	357.371270575078	1099.334083666837	1365.491960681388	505.673381836957	1039.142736831650	1440.689326399227	688.193535797058	979.488840645251	1495.641463803757	514.589637515944	1059.446500481953	942.779902842290	653.568571547411	1019.726033488989	966.677941567231	380.907241384122	1088.124846425429	738.955573040469	620.818065176347	1006.195259283394	632.118799740683	687.793508644422	1075.369862784643	577.895089475370	603.903616820614	1070.945338028399	490.165322926184	610.628553405689	1103.844099515592	783.400106209561	400.993243390362	1058.401717853451	660.479121482664	315.806001319151	1162.486557200746	599.361116773581	374.680741823942	1188.517162630614	529.616246195641	363.314827101988	1160.506654542166	456.669394426153	348.368388228073	1072.501840645995	342.964041010078	292.218823077784	1144.459316911382	227.388526031220	336.711941268518	1040.346047297231	400.876040874122	617.720736558396	966.266152179204	299.335197896413	679.472261475571	1001.640227976857	203.595535886333	614.697250589062	862.404444171462	42.627601498718	585.713019346405	1032.514794220705	96.647487525609	621.310635627273	945.339373255647	36.579126411006	661.194733145842	1153.322944310574	45.562086535922	650.293716368032	1037.432333245833	57.444369536354	368.922523387368	1106.643851508641	60.990287088709	285.003325145802	1186.881839783138	129.216377230503	307.210022685384	1314.506899838855	88.981047903199	269.143766270410	919.262025051291	1083.026986958616	241.583854773305	1046.572776709861	853.309718035787	213.782925357054	1106.298456247705	1103.971031860917	818.052445751791	1340.084740801113	1032.245253331695	741.313011177898	
109	53.493142857143	820.732228254193	1004.549389954988	559.775202308094	976.343136450615	1431.742090523023	357.567051757440	1099.385080547952	1365.378229712730	504.974791433946	1040.525356891097	1440.552297134459	687.951726111664	979.747033388137	1495.774432767211	514.882430317508	1059.283847860996	942.535098356457	652.716158136911	1018.162618863149	966.778220794340	380.238216220925	1086.119769359937	738.299515012794	619.917796897361	1003.737507504212	632.029835283503	687.411838755881	1071.810808140146	577.302975127802	603.116034565072	1066.733732402274	489.812258914101	609.997396062965	1100.798731654749	782.622880706617	400.935899174043	1056.107076297099	660.743782996946	314.350979569823	1158.857797296557	598.809427278861	375.016955315191	1185.768677998365	530.989434039595	363.445038016357	1160.772543343054	458.623982282544	348.008045600768	1078.967639950436	341.002857327157	290.148867035309	1155.622211750195	228.598065455003	335.605413261504	1035.995010610959	400.638923233204	617.283185090998	961.849556501711	299.293423367172	679.275209148592	996.829076705732	203.463253717353	614.480415178708	857.277324625959	42.613769096544	585.762984254602	1027.377632659447	96.598737463683	621.253257525428	940.213530070095	36.578974459029	661.208714051343	1148.198302788654	45.509068489291	650.304826416460	1055.826500190848	54.071983429796	366.062588004542	1126.606747043764	59.762448796270	283.504987506285	1203.587994894143	131.474807406322	306.698127060132	1333.590718013997	96.167729420950	271.523244342206	916.679476831158	1083.766457144790	241.684990915098	1037.896808901052	851.066390926418	211.915683682117	1113.412913586233	1105.176094523202	816.462622146047	1348.911367049300	1048.699659448732	734.493491939713	
110	53.505857142857	820.238488146158	1005.096876399311	560.111334091984	975.655747748861	1432.111901143176	357.579766433722	1099.428609518291	1365.280410144733	504.163079687488	1041.774875231645	1440.411198384145	687.547313410835	979.944560816850	1495.905322650047	514.976229871746	1059.151633250121	942.283787989655	651.751176586761	1016.751921122039	966.851164310143	379.442577370048	1084.211842211930	737.629284500712	618.955087151469	1001.355197900341	631.926169253827	686.905886932192	1068.343401346490	576.699133695388	602.238581231765	1062.616493810092	489.447764697181	609.276440465148	1098.005959252890	781.899482405103	400.843921529278	1054.032142972043	660.933567297460	312.968747406410	1155.617530744297	598.274673003419	375.140682797306	1183.234537887989	532.129226417028	363.564917538287	1160.875909818932	460.359890620533	347.730034349451	1084.601228059170	339.583259800766	288.360866008345	1165.068443867503	230.116241707352	334.826968478171	1031.711847237829	400.397439214321	616.765593898461	957.480750908379	299.273792618863	679.023740041031	992.045259577015	203.336885527168	614.229730832867	852.148000589077	42.610532384351	585.806402047631	1022.241151191943	96.543678655935	621.179786412028	935.088693404784	36.579497708656	661.220176500646	1143.077951450130	45.456978469372	650.323972310535	1071.482729234384	52.088879748298	363.694234821182	1143.762786741820	59.384548993576	282.504658628977	1217.833034745190	133.933747514790	306.610692420562	1349.736141236615	102.713640893646	274.378140876756	914.289092316437	1084.491887212887	241.624441346409	1029.363839902563	848.986087154823	210.094619180593	1120.496582179240	1106.450263695538	814.479105152354	1356.694840678506	1065.234352158152	727.573761583611	
111	53.518571428571	819.807585615747	1005.582340460536	560.194783943412	975.017249328811	1432.471126892992	357.411696900474	1099.451187477034	1365.210699340310	503.239433514082	1042.877520299974	1440.282990614711	686.980611209625	980.069005889525	1496.035803854643	514.869388938697	1059.063525312857	942.031879705994	650.664295543886	1015.510181715231	966.915123813798	378.507181009678	1082.389138702477	736.952888661017	617.900757638792	999.039334925450	631.814646037806	686.270960836495	1064.967582855357	576.085003092351	601.278644926870	1058.593839210661	489.071819679006	608.472010981250	1095.598632852147	781.314969125125	400.641547758847	1052.199279174387	661.016447901896	311.747796978810	1152.895328348390	597.802243842446	375.010685519527	1181.034957907526	533.031197784929	363.637887363889	1160.871587921560	461.807974904275	347.519895581925	1089.231830615570	338.601855822664	286.965729226436	1172.653337322001	231.696445634724	334.381613927028	1027.494616005970	400.154060850997	616.173419086103	953.153221118790	299.280009235168	678.718803742834	987.287859078732	203.218476678588	613.946098319642	847.017375504181	42.619130471491	585.842786320584	1017.106722838035	96.483746015699	621.091196536966	929.964974202531	36.580704390103	661.225779320890	1137.960666425741	45.404144803210	650.347990377096	1084.121383448051	51.151327252951	361.999363264394	1157.696620549291	59.552525690265	282.029647871700	1229.338486032037	136.291998336575	306.861303630066	1362.665607767307	108.270204282025	277.297764435443	912.079448858364	1085.199051942637	241.396072228383	1021.030938764225	847.083690223344	208.315301790217	1127.507368716084	1107.814203492585	812.114914191582	1363.429528015807	1081.695764698333	720.624059535693	
